<svg width="526" height="58" viewBox="0 0 526 58" fill="none" xmlns="http://www.w3.org/2000/svg">
<path d="M0 10C0 4.47715 4.47715 0 10 0H516C521.523 0 526 4.47715 526 10V48C526 53.5229 521.523 58 516 58H9.99998C4.47714 58 0 53.5228 0 48V10Z" fill="#F8F8F8"/>
<rect x="480" y="9" width="15" height="15" rx="2" fill="#2BA441"/>
<rect x="484" y="4" width="15" height="15" rx="2" fill="#46D15F"/>
<rect x="34" y="10" width="15" height="15" rx="2" fill="#2BA441"/>
<rect x="30" y="6" width="15" height="15" rx="2" fill="#46D15F"/>
<path d="M38.9586 22.664C39.1746 21.416 39.6366 20.306 40.3446 19.334C41.0646 18.35 41.9526 17.588 43.0086 17.048C44.0646 16.496 45.2046 16.22 46.4286 16.22C47.9286 16.22 49.1406 16.616 50.0646 17.408C51.0006 18.2 51.5286 19.28 51.6486 20.648H48.2646C48.1086 20.132 47.8206 19.742 47.4006 19.478C46.9926 19.202 46.4886 19.064 45.8886 19.064C44.9406 19.064 44.1186 19.394 43.4226 20.054C42.7266 20.702 42.2826 21.572 42.0906 22.664C42.0306 23 42.0006 23.294 42.0006 23.546C42.0006 24.386 42.2346 25.052 42.7026 25.544C43.1706 26.036 43.8126 26.282 44.6286 26.282C45.2166 26.282 45.7626 26.144 46.2666 25.868C46.7826 25.592 47.2146 25.196 47.5626 24.68H50.9466C50.3466 26.048 49.4406 27.128 48.2286 27.92C47.0166 28.7 45.6606 29.09 44.1606 29.09C43.0806 29.09 42.1386 28.88 41.3346 28.46C40.5306 28.04 39.9126 27.446 39.4806 26.678C39.0486 25.91 38.8326 25.016 38.8326 23.996C38.8326 23.54 38.8746 23.096 38.9586 22.664ZM58.3395 29.126C57.2715 29.126 56.3295 28.904 55.5135 28.46C54.7095 28.016 54.0855 27.392 53.6415 26.588C53.1975 25.784 52.9755 24.86 52.9755 23.816C52.9755 22.34 53.2935 21.026 53.9295 19.874C54.5655 18.71 55.4475 17.804 56.5755 17.156C57.7155 16.508 59.0055 16.184 60.4455 16.184C61.5255 16.184 62.4735 16.406 63.2895 16.85C64.1055 17.282 64.7355 17.9 65.1795 18.704C65.6235 19.496 65.8455 20.408 65.8455 21.44C65.8455 22.916 65.5275 24.242 64.8915 25.418C64.2555 26.582 63.3675 27.494 62.2275 28.154C61.0875 28.802 59.7915 29.126 58.3395 29.126ZM58.8075 26.282C59.5995 26.282 60.2955 26.078 60.8955 25.67C61.4955 25.262 61.9575 24.716 62.2815 24.032C62.6175 23.336 62.7855 22.586 62.7855 21.782C62.7855 20.918 62.5455 20.24 62.0655 19.748C61.5855 19.256 60.9135 19.01 60.0495 19.01C59.2575 19.01 58.5555 19.214 57.9435 19.622C57.3435 20.03 56.8755 20.576 56.5395 21.26C56.2155 21.932 56.0535 22.676 56.0535 23.492C56.0535 24.356 56.2935 25.04 56.7735 25.544C57.2535 26.036 57.9315 26.282 58.8075 26.282ZM78.0519 29H74.9739L71.2119 21.206L69.8259 29H66.7479L68.9799 16.364H72.0579L75.8199 24.194L77.2059 16.364H80.2839L78.0519 29ZM93.7291 16.364L91.4971 29H88.4191L89.3371 23.762H84.5491L83.6311 29H80.5531L82.7851 16.364H85.8631L84.9811 21.332H89.7691L90.6511 16.364H93.7291ZM98.8671 18.794L98.4171 21.422H102.539L102.125 23.744H98.0031L97.4991 26.57H102.161L101.729 29H93.9891L96.2211 16.364H103.961L103.529 18.794H98.8671ZM110.279 26.282C110.867 26.282 111.413 26.144 111.917 25.868C112.433 25.592 112.865 25.196 113.213 24.68H116.597C116.069 25.892 115.295 26.882 114.275 27.65C113.255 28.406 112.097 28.868 110.801 29.036L110.675 29.738C111.227 29.738 111.695 29.87 112.079 30.134C112.475 30.41 112.673 30.818 112.673 31.358C112.673 31.538 112.661 31.682 112.637 31.79C112.517 32.474 112.181 32.99 111.629 33.338C111.077 33.698 110.459 33.878 109.775 33.878H107.003L107.309 32.186H109.649C109.889 32.186 110.075 32.15 110.207 32.078C110.351 32.006 110.435 31.886 110.459 31.718C110.495 31.55 110.459 31.43 110.351 31.358C110.243 31.298 110.069 31.268 109.829 31.268H108.551L108.947 29.036C107.567 28.88 106.475 28.352 105.671 27.452C104.879 26.54 104.483 25.388 104.483 23.996C104.483 23.648 104.525 23.204 104.609 22.664C104.825 21.416 105.287 20.306 105.995 19.334C106.715 18.35 107.603 17.588 108.659 17.048C109.715 16.496 110.855 16.22 112.079 16.22C113.579 16.22 114.791 16.616 115.715 17.408C116.651 18.2 117.179 19.28 117.299 20.648H113.915C113.759 20.132 113.471 19.742 113.051 19.478C112.643 19.202 112.139 19.064 111.539 19.064C110.591 19.064 109.769 19.394 109.073 20.054C108.377 20.702 107.933 21.572 107.741 22.664C107.681 23 107.651 23.294 107.651 23.546C107.651 24.386 107.885 25.052 108.353 25.544C108.821 26.036 109.463 26.282 110.279 26.282ZM126.24 26.768H121.524L120.372 29H117.15L123.954 16.364H127.518L129.858 29H126.6L126.24 26.768ZM125.88 24.428L125.142 19.748L122.73 24.428H125.88ZM144.218 26.768H139.502L138.35 29H135.128L141.932 16.364H145.496L147.836 29H144.578L144.218 26.768ZM143.858 24.428L143.12 19.748L140.708 24.428H143.858ZM154.519 29.126C153.151 29.126 152.035 28.832 151.171 28.244C150.319 27.644 149.893 26.798 149.893 25.706C149.893 25.598 149.905 25.436 149.929 25.22H153.133C153.097 25.676 153.205 26.036 153.457 26.3C153.709 26.564 154.093 26.696 154.609 26.696C155.077 26.696 155.443 26.594 155.707 26.39C155.983 26.186 156.121 25.898 156.121 25.526C156.121 25.142 155.947 24.83 155.599 24.59C155.263 24.35 154.735 24.08 154.015 23.78C153.319 23.492 152.749 23.222 152.305 22.97C151.873 22.706 151.495 22.352 151.171 21.908C150.847 21.464 150.685 20.906 150.685 20.234C150.673 19.406 150.877 18.686 151.297 18.074C151.717 17.462 152.299 16.994 153.043 16.67C153.787 16.346 154.639 16.184 155.599 16.184C156.463 16.184 157.231 16.322 157.903 16.598C158.575 16.862 159.097 17.252 159.469 17.768C159.841 18.272 160.027 18.872 160.027 19.568C160.027 19.748 160.021 19.88 160.009 19.964H156.733C156.745 19.916 156.751 19.844 156.751 19.748C156.751 19.412 156.631 19.142 156.391 18.938C156.163 18.722 155.845 18.614 155.437 18.614C155.005 18.614 154.651 18.722 154.375 18.938C154.111 19.142 153.979 19.424 153.979 19.784C153.979 20.144 154.147 20.45 154.483 20.702C154.819 20.942 155.341 21.224 156.049 21.548C156.757 21.872 157.333 22.172 157.777 22.448C158.233 22.724 158.623 23.096 158.947 23.564C159.271 24.02 159.433 24.584 159.433 25.256C159.433 26 159.235 26.666 158.839 27.254C158.443 27.842 157.873 28.304 157.129 28.64C156.385 28.964 155.515 29.126 154.519 29.126ZM172.367 16.364C173.531 16.364 174.533 16.574 175.373 16.994C176.225 17.402 176.873 17.984 177.317 18.74C177.773 19.484 178.001 20.36 178.001 21.368C178.001 21.716 177.959 22.154 177.875 22.682C177.659 23.918 177.191 25.016 176.471 25.976C175.763 26.936 174.857 27.68 173.753 28.208C172.661 28.736 171.455 29 170.135 29H165.401L167.633 16.364H172.367ZM170.405 26.372C171.569 26.372 172.535 26.048 173.303 25.4C174.071 24.752 174.551 23.846 174.743 22.682C174.803 22.322 174.833 22.022 174.833 21.782C174.833 20.894 174.563 20.21 174.023 19.73C173.483 19.238 172.715 18.992 171.719 18.992H170.243L168.947 26.372H170.405ZM184.059 16.364L181.827 29H178.749L180.981 16.364H184.059ZM191.725 16.364C193.033 16.364 194.029 16.664 194.713 17.264C195.397 17.852 195.739 18.62 195.739 19.568C195.739 19.844 195.715 20.102 195.667 20.342C195.523 21.182 195.157 21.932 194.569 22.592C193.981 23.252 193.195 23.72 192.211 23.996L194.245 29H190.771L188.989 24.23H188.251L187.405 29H184.327L186.559 16.364H191.725ZM192.517 20.468C192.541 20.276 192.553 20.15 192.553 20.09C192.553 19.706 192.427 19.412 192.175 19.208C191.935 18.992 191.575 18.884 191.095 18.884H189.187L188.629 22.052H190.537C191.101 22.052 191.545 21.914 191.869 21.638C192.205 21.362 192.421 20.972 192.517 20.468ZM201.217 18.794L200.767 21.422H204.889L204.475 23.744H200.353L199.849 26.57H204.511L204.079 29H196.339L198.571 16.364H206.311L205.879 18.794H201.217ZM217.67 16.364L217.256 18.794H213.89L212.09 29H209.012L210.812 18.794H207.464L207.896 16.364H217.67ZM223.265 29.126C222.197 29.126 221.255 28.904 220.439 28.46C219.635 28.016 219.011 27.392 218.567 26.588C218.123 25.784 217.901 24.86 217.901 23.816C217.901 22.34 218.219 21.026 218.855 19.874C219.491 18.71 220.373 17.804 221.501 17.156C222.641 16.508 223.931 16.184 225.371 16.184C226.451 16.184 227.399 16.406 228.215 16.85C229.031 17.282 229.661 17.9 230.105 18.704C230.549 19.496 230.771 20.408 230.771 21.44C230.771 22.916 230.453 24.242 229.817 25.418C229.181 26.582 228.293 27.494 227.153 28.154C226.013 28.802 224.717 29.126 223.265 29.126ZM223.733 26.282C224.525 26.282 225.221 26.078 225.821 25.67C226.421 25.262 226.883 24.716 227.207 24.032C227.543 23.336 227.711 22.586 227.711 21.782C227.711 20.918 227.471 20.24 226.991 19.748C226.511 19.256 225.839 19.01 224.975 19.01C224.183 19.01 223.481 19.214 222.869 19.622C222.269 20.03 221.801 20.576 221.465 21.26C221.141 21.932 220.979 22.676 220.979 23.492C220.979 24.356 221.219 25.04 221.699 25.544C222.179 26.036 222.857 26.282 223.733 26.282ZM239.071 16.364C240.379 16.364 241.375 16.664 242.059 17.264C242.743 17.852 243.085 18.62 243.085 19.568C243.085 19.844 243.061 20.102 243.013 20.342C242.869 21.182 242.503 21.932 241.915 22.592C241.327 23.252 240.541 23.72 239.557 23.996L241.591 29H238.117L236.335 24.23H235.597L234.751 29H231.673L233.905 16.364H239.071ZM239.863 20.468C239.887 20.276 239.899 20.15 239.899 20.09C239.899 19.706 239.773 19.412 239.521 19.208C239.281 18.992 238.921 18.884 238.441 18.884H236.533L235.975 22.052H237.883C238.447 22.052 238.891 21.914 239.215 21.638C239.551 21.362 239.767 20.972 239.863 20.468ZM248.995 16.364L246.763 29H243.685L245.917 16.364H248.995ZM257.526 26.768H252.81L251.658 29H248.436L255.24 16.364H258.804L261.144 29H257.886L257.526 26.768ZM257.166 24.428L256.428 19.748L254.016 24.428H257.166ZM267.827 29.126C266.459 29.126 265.343 28.832 264.479 28.244C263.627 27.644 263.201 26.798 263.201 25.706C263.201 25.598 263.213 25.436 263.237 25.22H266.441C266.405 25.676 266.513 26.036 266.765 26.3C267.017 26.564 267.401 26.696 267.917 26.696C268.385 26.696 268.751 26.594 269.015 26.39C269.291 26.186 269.429 25.898 269.429 25.526C269.429 25.142 269.255 24.83 268.907 24.59C268.571 24.35 268.043 24.08 267.323 23.78C266.627 23.492 266.057 23.222 265.613 22.97C265.181 22.706 264.803 22.352 264.479 21.908C264.155 21.464 263.993 20.906 263.993 20.234C263.981 19.406 264.185 18.686 264.605 18.074C265.025 17.462 265.607 16.994 266.351 16.67C267.095 16.346 267.947 16.184 268.907 16.184C269.771 16.184 270.539 16.322 271.211 16.598C271.883 16.862 272.405 17.252 272.777 17.768C273.149 18.272 273.335 18.872 273.335 19.568C273.335 19.748 273.329 19.88 273.317 19.964H270.041C270.053 19.916 270.059 19.844 270.059 19.748C270.059 19.412 269.939 19.142 269.699 18.938C269.471 18.722 269.153 18.614 268.745 18.614C268.313 18.614 267.959 18.722 267.683 18.938C267.419 19.142 267.287 19.424 267.287 19.784C267.287 20.144 267.455 20.45 267.791 20.702C268.127 20.942 268.649 21.224 269.357 21.548C270.065 21.872 270.641 22.172 271.085 22.448C271.541 22.724 271.931 23.096 272.255 23.564C272.579 24.02 272.741 24.584 272.741 25.256C272.741 26 272.543 26.666 272.147 27.254C271.751 27.842 271.181 28.304 270.437 28.64C269.693 28.964 268.823 29.126 267.827 29.126ZM292.226 21.44C292.226 22.844 291.938 24.116 291.362 25.256C290.786 26.384 289.982 27.278 288.95 27.938L291.056 31.16H287.33L286.124 29.018C285.68 29.09 285.212 29.126 284.72 29.126C283.652 29.126 282.71 28.904 281.894 28.46C281.09 28.016 280.466 27.392 280.022 26.588C279.578 25.784 279.356 24.86 279.356 23.816C279.356 22.34 279.674 21.026 280.31 19.874C280.946 18.71 281.828 17.804 282.956 17.156C284.096 16.508 285.386 16.184 286.826 16.184C287.906 16.184 288.854 16.406 289.67 16.85C290.486 17.282 291.116 17.9 291.56 18.704C292.004 19.496 292.226 20.408 292.226 21.44ZM282.434 23.492C282.434 24.356 282.674 25.04 283.154 25.544C283.634 26.036 284.312 26.282 285.188 26.282C285.98 26.282 286.676 26.078 287.276 25.67C287.876 25.262 288.338 24.716 288.662 24.032C288.998 23.336 289.166 22.586 289.166 21.782C289.166 20.918 288.926 20.24 288.446 19.748C287.966 19.256 287.294 19.01 286.43 19.01C285.638 19.01 284.936 19.214 284.324 19.622C283.724 20.03 283.256 20.576 282.92 21.26C282.596 21.932 282.434 22.676 282.434 23.492ZM298.42 16.364L297.088 23.906C297.04 24.218 297.016 24.434 297.016 24.554C297.016 25.106 297.172 25.532 297.484 25.832C297.796 26.12 298.258 26.264 298.87 26.264C299.59 26.264 300.178 26.06 300.634 25.652C301.09 25.244 301.384 24.662 301.516 23.906L302.848 16.364H305.926L304.594 23.906C304.39 25.046 303.982 26.012 303.37 26.804C302.77 27.584 302.032 28.166 301.156 28.55C300.292 28.934 299.35 29.126 298.33 29.126C297.01 29.126 295.942 28.784 295.126 28.1C294.322 27.416 293.92 26.426 293.92 25.13C293.92 24.746 293.956 24.338 294.028 23.906L295.342 16.364H298.42ZM311.003 18.794L310.553 21.422H314.675L314.261 23.744H310.139L309.635 26.57H314.297L313.865 29H306.125L308.357 16.364H316.097L315.665 18.794H311.003ZM331.028 16.364L330.596 18.794H325.448L324.98 21.512H328.832L328.4 23.852H324.548L323.648 29H320.57L322.802 16.364H331.028ZM338.945 26.768H334.229L333.077 29H329.855L336.659 16.364H340.223L342.563 29H339.305L338.945 26.768ZM338.585 24.428L337.847 19.748L335.435 24.428H338.585ZM347.951 26.48H353.387L352.937 29H344.009L344.423 26.66L351.191 18.884H345.791L346.241 16.364H355.169L354.755 18.704L347.951 26.48ZM360.096 18.794L359.646 21.422H363.768L363.354 23.744H359.232L358.728 26.57H363.39L362.958 29H355.218L357.45 16.364H365.19L364.758 18.794H360.096ZM381.768 16.364L379.536 29H376.458L377.808 21.422L373.632 29H371.148L369.636 21.386L368.304 29H365.226L367.458 16.364H371.094L373.11 25.112L378.15 16.364H381.768ZM386.033 26.084L383.117 31.304H381.101L382.901 26.084H386.033ZM397.958 29.126C396.89 29.126 395.948 28.904 395.132 28.46C394.328 28.016 393.704 27.392 393.26 26.588C392.816 25.784 392.594 24.86 392.594 23.816C392.594 22.34 392.912 21.026 393.548 19.874C394.184 18.71 395.066 17.804 396.194 17.156C397.334 16.508 398.624 16.184 400.064 16.184C401.144 16.184 402.092 16.406 402.908 16.85C403.724 17.282 404.354 17.9 404.798 18.704C405.242 19.496 405.464 20.408 405.464 21.44C405.464 22.916 405.146 24.242 404.51 25.418C403.874 26.582 402.986 27.494 401.846 28.154C400.706 28.802 399.41 29.126 397.958 29.126ZM398.426 26.282C399.218 26.282 399.914 26.078 400.514 25.67C401.114 25.262 401.576 24.716 401.9 24.032C402.236 23.336 402.404 22.586 402.404 21.782C402.404 20.918 402.164 20.24 401.684 19.748C401.204 19.256 400.532 19.01 399.668 19.01C398.876 19.01 398.174 19.214 397.562 19.622C396.962 20.03 396.494 20.576 396.158 21.26C395.834 21.932 395.672 22.676 395.672 23.492C395.672 24.356 395.912 25.04 396.392 25.544C396.872 26.036 397.55 26.282 398.426 26.282ZM411.414 22.664C411.63 21.416 412.092 20.306 412.8 19.334C413.52 18.35 414.408 17.588 415.464 17.048C416.52 16.496 417.66 16.22 418.884 16.22C420.384 16.22 421.596 16.616 422.52 17.408C423.456 18.2 423.984 19.28 424.104 20.648H420.72C420.564 20.132 420.276 19.742 419.856 19.478C419.448 19.202 418.944 19.064 418.344 19.064C417.396 19.064 416.574 19.394 415.878 20.054C415.182 20.702 414.738 21.572 414.546 22.664C414.486 23 414.456 23.294 414.456 23.546C414.456 24.386 414.69 25.052 415.158 25.544C415.626 26.036 416.268 26.282 417.084 26.282C417.672 26.282 418.218 26.144 418.722 25.868C419.238 25.592 419.67 25.196 420.018 24.68H423.402C422.802 26.048 421.896 27.128 420.684 27.92C419.472 28.7 418.116 29.09 416.616 29.09C415.536 29.09 414.594 28.88 413.79 28.46C412.986 28.04 412.368 27.446 411.936 26.678C411.504 25.91 411.288 25.016 411.288 23.996C411.288 23.54 411.33 23.096 411.414 22.664ZM433.045 26.768H428.329L427.177 29H423.955L430.759 16.364H434.323L436.663 29H433.405L433.045 26.768ZM432.685 24.428L431.947 19.748L429.535 24.428H432.685ZM454.867 16.364L452.635 29H449.557L450.907 21.422L446.731 29H444.247L442.735 21.386L441.403 29H438.325L440.557 16.364H444.193L446.209 25.112L451.249 16.364H454.867ZM466.26 20.432C466.14 21.164 465.858 21.836 465.414 22.448C464.97 23.048 464.364 23.534 463.596 23.906C462.84 24.278 461.946 24.464 460.914 24.464H459.006L458.196 29H455.118L457.35 16.364H462.336C463.656 16.364 464.652 16.658 465.324 17.246C465.996 17.822 466.332 18.608 466.332 19.604C466.332 19.904 466.308 20.18 466.26 20.432ZM461.094 22.052C462.246 22.052 462.924 21.512 463.128 20.432C463.152 20.24 463.164 20.102 463.164 20.018C463.164 19.634 463.038 19.34 462.786 19.136C462.546 18.92 462.174 18.812 461.67 18.812H459.996L459.438 22.052H461.094ZM471.877 16.364L470.545 23.906C470.497 24.218 470.473 24.434 470.473 24.554C470.473 25.106 470.629 25.532 470.941 25.832C471.253 26.12 471.715 26.264 472.327 26.264C473.047 26.264 473.635 26.06 474.091 25.652C474.547 25.244 474.841 24.662 474.973 23.906L476.305 16.364H479.383L478.051 23.906C477.847 25.046 477.439 26.012 476.827 26.804C476.227 27.584 475.489 28.166 474.613 28.55C473.749 28.934 472.807 29.126 471.787 29.126C470.467 29.126 469.399 28.784 468.583 28.1C467.779 27.416 467.377 26.426 467.377 25.13C467.377 24.746 467.413 24.338 467.485 23.906L468.799 16.364H471.877ZM484.604 29.126C483.236 29.126 482.12 28.832 481.256 28.244C480.404 27.644 479.978 26.798 479.978 25.706C479.978 25.598 479.99 25.436 480.014 25.22H483.218C483.182 25.676 483.29 26.036 483.542 26.3C483.794 26.564 484.178 26.696 484.694 26.696C485.162 26.696 485.528 26.594 485.792 26.39C486.068 26.186 486.206 25.898 486.206 25.526C486.206 25.142 486.032 24.83 485.684 24.59C485.348 24.35 484.82 24.08 484.1 23.78C483.404 23.492 482.834 23.222 482.39 22.97C481.958 22.706 481.58 22.352 481.256 21.908C480.932 21.464 480.77 20.906 480.77 20.234C480.758 19.406 480.962 18.686 481.382 18.074C481.802 17.462 482.384 16.994 483.128 16.67C483.872 16.346 484.724 16.184 485.684 16.184C486.548 16.184 487.316 16.322 487.988 16.598C488.66 16.862 489.182 17.252 489.554 17.768C489.926 18.272 490.112 18.872 490.112 19.568C490.112 19.748 490.106 19.88 490.094 19.964H486.818C486.83 19.916 486.836 19.844 486.836 19.748C486.836 19.412 486.716 19.142 486.476 18.938C486.248 18.722 485.93 18.614 485.522 18.614C485.09 18.614 484.736 18.722 484.46 18.938C484.196 19.142 484.064 19.424 484.064 19.784C484.064 20.144 484.232 20.45 484.568 20.702C484.904 20.942 485.426 21.224 486.134 21.548C486.842 21.872 487.418 22.172 487.862 22.448C488.318 22.724 488.708 23.096 489.032 23.564C489.356 24.02 489.518 24.584 489.518 25.256C489.518 26 489.32 26.666 488.924 27.254C488.528 27.842 487.958 28.304 487.214 28.64C486.47 28.964 485.6 29.126 484.604 29.126ZM220.181 43.364L219.749 45.794H214.601L214.133 48.512H217.985L217.553 50.852H213.701L212.801 56H209.723L211.955 43.364H220.181ZM225.093 43.364L223.761 50.906C223.713 51.218 223.689 51.434 223.689 51.554C223.689 52.106 223.845 52.532 224.157 52.832C224.469 53.12 224.931 53.264 225.543 53.264C226.263 53.264 226.851 53.06 227.307 52.652C227.763 52.244 228.057 51.662 228.189 50.906L229.521 43.364H232.599L231.267 50.906C231.063 52.046 230.655 53.012 230.043 53.804C229.443 54.584 228.705 55.166 227.829 55.55C226.965 55.934 226.023 56.126 225.003 56.126C223.683 56.126 222.615 55.784 221.799 55.1C220.995 54.416 220.593 53.426 220.593 52.13C220.593 51.746 220.629 51.338 220.701 50.906L222.015 43.364H225.093ZM244.103 56H241.025L237.263 48.206L235.877 56H232.799L235.031 43.364H238.109L241.871 51.194L243.257 43.364H246.335L244.103 56ZM247.216 49.664C247.432 48.416 247.894 47.306 248.602 46.334C249.322 45.35 250.21 44.588 251.266 44.048C252.322 43.496 253.462 43.22 254.686 43.22C256.186 43.22 257.398 43.616 258.322 44.408C259.258 45.2 259.786 46.28 259.906 47.648H256.522C256.366 47.132 256.078 46.742 255.658 46.478C255.25 46.202 254.746 46.064 254.146 46.064C253.198 46.064 252.376 46.394 251.68 47.054C250.984 47.702 250.54 48.572 250.348 49.664C250.288 50 250.258 50.294 250.258 50.546C250.258 51.386 250.492 52.052 250.96 52.544C251.428 53.036 252.07 53.282 252.886 53.282C253.474 53.282 254.02 53.144 254.524 52.868C255.04 52.592 255.472 52.196 255.82 51.68H259.204C258.604 53.048 257.698 54.128 256.486 54.92C255.274 55.7 253.918 56.09 252.418 56.09C251.338 56.09 250.396 55.88 249.592 55.46C248.788 55.04 248.17 54.446 247.738 53.678C247.306 52.91 247.09 52.016 247.09 50.996C247.09 50.54 247.132 50.096 247.216 49.664ZM265.895 43.364L263.663 56H260.585L262.817 43.364H265.895ZM272.175 56.126C271.107 56.126 270.165 55.904 269.349 55.46C268.545 55.016 267.921 54.392 267.477 53.588C267.033 52.784 266.811 51.86 266.811 50.816C266.811 49.34 267.129 48.026 267.765 46.874C268.401 45.71 269.283 44.804 270.411 44.156C271.551 43.508 272.841 43.184 274.281 43.184C275.361 43.184 276.309 43.406 277.125 43.85C277.941 44.282 278.571 44.9 279.015 45.704C279.459 46.496 279.681 47.408 279.681 48.44C279.681 49.916 279.363 51.242 278.727 52.418C278.091 53.582 277.203 54.494 276.063 55.154C274.923 55.802 273.627 56.126 272.175 56.126ZM272.643 53.282C273.435 53.282 274.131 53.078 274.731 52.67C275.331 52.262 275.793 51.716 276.117 51.032C276.453 50.336 276.621 49.586 276.621 48.782C276.621 47.918 276.381 47.24 275.901 46.748C275.421 46.256 274.749 46.01 273.885 46.01C273.093 46.01 272.391 46.214 271.779 46.622C271.179 47.03 270.711 47.576 270.375 48.26C270.051 48.932 269.889 49.676 269.889 50.492C269.889 51.356 270.129 52.04 270.609 52.544C271.089 53.036 271.767 53.282 272.643 53.282ZM291.888 56H288.81L285.048 48.206L283.662 56H280.584L282.816 43.364H285.894L289.656 51.194L291.042 43.364H294.12L291.888 56ZM302.651 53.768H297.935L296.783 56H293.561L300.365 43.364H303.929L306.269 56H303.011L302.651 53.768ZM302.291 51.428L301.553 46.748L299.141 51.428H302.291ZM315.328 43.364C316.636 43.364 317.632 43.664 318.316 44.264C319 44.852 319.342 45.62 319.342 46.568C319.342 46.844 319.318 47.102 319.27 47.342C319.126 48.182 318.76 48.932 318.172 49.592C317.584 50.252 316.798 50.72 315.814 50.996L317.848 56H314.374L312.592 51.23H311.854L311.008 56H307.93L310.162 43.364H315.328ZM316.12 47.468C316.144 47.276 316.156 47.15 316.156 47.09C316.156 46.706 316.03 46.412 315.778 46.208C315.538 45.992 315.178 45.884 314.698 45.884H312.79L312.232 49.052H314.14C314.704 49.052 315.148 48.914 315.472 48.638C315.808 48.362 316.024 47.972 316.12 47.468Z" fill="#202020"/>
</svg>
